<svg id="Layer_1" data-name="Layer 1" xmlns="http://www.w3.org/2000/svg" xmlns:xlink="http://www.w3.org/1999/xlink" viewBox="0 0 56.88 56.88"><defs><style>.cls-1{fill:url(#linear-gradient);}.cls-2{fill:url(#linear-gradient-2);}.cls-3{fill:#107898;}.cls-4{fill:#ed4096;}.cls-5{fill:#25a8e0;}</style><linearGradient id="linear-gradient" x1="768.24" y1="997.13" x2="768.24" y2="1054.01" gradientTransform="matrix(1, 0, 0, -1, -739.8, 1054.01)" gradientUnits="userSpaceOnUse"><stop offset="0" stop-color="#107898"/><stop offset="0.29" stop-color="#127e9e"/><stop offset="0.68" stop-color="#088db0"/><stop offset="1" stop-color="#029fc3"/></linearGradient><linearGradient id="linear-gradient-2" x1="46.96" y1="2.17" x2="30.13" y2="26.05" gradientUnits="userSpaceOnUse"><stop offset="0" stop-color="#b3b2b3"/><stop offset="0.85" stop-color="#e5e5e4"/><stop offset="1" stop-color="#fff"/></linearGradient></defs><circle class="cls-1" cx="28.44" cy="28.44" r="28.44"/><circle class="cls-2" cx="28.44" cy="28.44" r="27"/><path class="cls-3" d="M759.27,1032.88a.5.5,0,0,1-.43-.76h0l2.14-3.33a.5.5,0,0,1,.87.49l0,0-2.14,3.33A.52.52,0,0,1,759.27,1032.88Z" transform="translate(-739.8 -995.99)"/><path class="cls-4" d="M777.06,1018l1.74-2.41s-1-1.58-3.65-.19c-2,1-2.93,1.77-3.93,2.19a6.51,6.51,0,0,0,3.55,1.43A3.39,3.39,0,0,0,777.06,1018Z" transform="translate(-739.8 -995.99)"/><path class="cls-5" d="M777.06,1018a3.41,3.41,0,0,1-2.29,1,6.51,6.51,0,0,1-3.55-1.43c-1.57-1.06-3.12-2.38-4.34-2.79-2.16-.72-4.63,1-4.63,1l8.47,11,6.34-8.79Z" transform="translate(-739.8 -995.99)"/><rect class="cls-3" x="20.75" y="39.05" width="17.1" height="0.85"/><path class="cls-3" d="M757.57,1039.17a3.7,3.7,0,1,1,3.7-3.7,3.7,3.7,0,0,1-3.7,3.7Zm0-6.55a2.85,2.85,0,1,0,2.85,2.85h0A2.86,2.86,0,0,0,757.57,1032.62Z" transform="translate(-739.8 -995.99)"/><path class="cls-3" d="M781.35,1039.17a3.7,3.7,0,1,1,3.7-3.7,3.7,3.7,0,0,1-3.7,3.7Zm0-6.55a2.85,2.85,0,1,0,2.85,2.85h0A2.86,2.86,0,0,0,781.35,1032.62Z" transform="translate(-739.8 -995.99)"/><path class="cls-3" d="M758,1016h-3.34a3.18,3.18,0,1,1,0-6.36h4.23a.5.5,0,0,1,.5.5.51.51,0,0,1-.5.5h-4.23a2.18,2.18,0,0,0,0,4.36H758a.51.51,0,0,1,.5.5.5.5,0,0,1-.5.5Z" transform="translate(-739.8 -995.99)"/><path class="cls-3" d="M776.94,1029.86H763.15a3.63,3.63,0,0,1-3.43-2.44c-.13-.37-.27-.75-.42-1.15-1.25-3.34-3-7.91-.92-16.25a.5.5,0,0,1,.61-.36h0a.49.49,0,0,1,.36.59h0c-2,8-.32,12.45.89,15.66.15.41.29.79.42,1.17a2.65,2.65,0,0,0,2.49,1.77h13.79a5.38,5.38,0,0,0,3.17-1l.46-.34a6.71,6.71,0,0,0,2.59-4.07,25.52,25.52,0,0,0,.43-6.64.5.5,0,0,1,.5-.5.5.5,0,0,1,.5.5,27.29,27.29,0,0,1-.45,6.87,7.76,7.76,0,0,1-3,4.68l-.46.33A6.26,6.26,0,0,1,776.94,1029.86Z" transform="translate(-739.8 -995.99)"/></svg>