<svg id="Layer_1" data-name="Layer 1" xmlns="http://www.w3.org/2000/svg" viewBox="0 0 33.62 29.53"><defs><style>.cls-1{fill:#107899;}.cls-2{fill:#ff2ba8;}.cls-3{fill:#24a9e0;}</style></defs><path class="cls-1" d="M759.26,1032.73a.45.45,0,0,1-.27-.08.5.5,0,0,1-.15-.69l2.14-3.33a.51.51,0,0,1,.7-.15.5.5,0,0,1,.15.69l-2.15,3.33A.49.49,0,0,1,759.26,1032.73Z" transform="translate(-751.42 -1009.49)"/><path class="cls-2" d="M777.05,1017.85l1.74-2.41s-1-1.57-3.65-.19c-2,1-2.93,1.77-3.92,2.19a6.6,6.6,0,0,0,3.54,1.44A3.4,3.4,0,0,0,777.05,1017.85Z" transform="translate(-751.42 -1009.49)"/><path class="cls-3" d="M777.05,1017.85a3.4,3.4,0,0,1-2.29,1,6.6,6.6,0,0,1-3.54-1.44c-1.57-1.06-3.12-2.38-4.34-2.78-2.17-.73-4.64,1-4.64,1l8.48,11,6.33-8.79Z" transform="translate(-751.42 -1009.49)"/><rect class="cls-1" x="9.12" y="25.41" width="17.1" height="0.85"/><path class="cls-1" d="M757.56,1039a3.7,3.7,0,1,1,3.7-3.7A3.7,3.7,0,0,1,757.56,1039Zm0-6.55a2.86,2.86,0,1,0,2.85,2.85A2.86,2.86,0,0,0,757.56,1032.47Z" transform="translate(-751.42 -1009.49)"/><path class="cls-1" d="M781.34,1039a3.7,3.7,0,1,1,3.7-3.7A3.7,3.7,0,0,1,781.34,1039Zm0-6.55a2.86,2.86,0,1,0,2.85,2.85A2.86,2.86,0,0,0,781.34,1032.47Z" transform="translate(-751.42 -1009.49)"/><path class="cls-1" d="M758,1015.86h-3.37a3.19,3.19,0,1,1,0-6.37h4.23a.51.51,0,0,1,.5.5.5.5,0,0,1-.5.5h-4.23a2.19,2.19,0,1,0,0,4.37H758a.5.5,0,0,1,.5.5A.5.5,0,0,1,758,1015.86Z" transform="translate(-751.42 -1009.49)"/><path class="cls-1" d="M776.94,1029.71H763.15a3.66,3.66,0,0,1-3.44-2.44c-.12-.37-.27-.75-.41-1.14-1.25-3.34-3-7.92-.92-16.26a.49.49,0,0,1,.6-.36.5.5,0,0,1,.37.6c-2,8-.32,12.45.88,15.67.15.4.3.78.43,1.16a2.64,2.64,0,0,0,2.49,1.77h13.79a5.3,5.3,0,0,0,3.16-1l.46-.34a6.66,6.66,0,0,0,2.59-4.06,24.66,24.66,0,0,0,.43-6.64.5.5,0,0,1,.48-.52.5.5,0,0,1,.52.48,25.92,25.92,0,0,1-.45,6.87,7.67,7.67,0,0,1-3,4.68l-.46.34A6.31,6.31,0,0,1,776.94,1029.71Z" transform="translate(-751.42 -1009.49)"/></svg>