<svg xmlns="http://www.w3.org/2000/svg" width="14.737" height="16.569" viewBox="843.799 2794.967 14.737 16.569"><path d="M853.186 2811.536a.792.792 0 0 1-.403-.093c-.283-.173-.543-.382-.817-.602-.125-.1-.442-.347-.442-.347l-.059.038a.57.57 0 0 0-.241.167c-.196.261-.369.383-.544.383-.131 0-.271-.064-.431-.196a.34.34 0 0 0-.22-.063c-.111 0-.25.03-.356.077-.162.072-.351.146-.528.146-.178 0-.336-.072-.496-.227-.149-.143-.411-.163-.672-.163h-.003c-.469 0-.661-.129-.749-.444-.124-.448-.361-.675-.705-.675-.117 0-.246.028-.385.082 0 0-.488.014-.595.014-.463 0-.464-.01-.519-.557l-1.198-10.39c-.064-.565-.033-.604.545-.685l.68-.096c1.02-.142 2.041-.284 3.055-.46a1.48 1.48 0 0 1 .26-.023c.236 0 .462.06.758.2.287.136.635.214.956.214l.267-.008c.236 0 .425.04.584.237.153.189.322.28.518.28.131 0 .276-.04.456-.126.398-.193.848-.34 1.339-.438.595-.119.959-.526 1.28-.932.502-.634 1.196-1.02 1.867-1.394.239-.133.479-.266.711-.41a.431.431 0 0 1 .222-.078c.185 0 .253.234.277.374l.919 5.293a.584.584 0 0 1 .018.135c-.429.53-.355 1.117-.283 1.686.05.393.097.764-.013 1.122-.079.254-.084.522-.089.78-.009.407-.016.79-.285 1.124a8.427 8.427 0 0 0-.266.351c-.368.505-.716.981-1.434 1.028-.095.006-.191.069-.293.193-.254.311-.515.986-.481 1.245.054.4.007.595-.034.624-.08.055-.207.062-.321.062l-.381-.008-.202.006-.04.2c-.026.134-.061.317-.103.499l-.087.391c-.085.385-.17.771-.285 1.147-.052.169-.403.317-.752.317Zm-1.442-1.726c.04 0 .076.004.107.011.128.03.276.128.407.27.185.198.355.411.525.624l.252.312.372-.091.374-1.661c.104-.5.202-.97.758-1.163.089-.03.144-.12.188-.192l.333-.522c.223-.352.446-.703.68-1.048a.437.437 0 0 1 .269-.15c.602-.075 1.532-.756 1.541-1.454.005-.327.044-.654.084-.982.087-.73.178-1.483-.118-2.232-.042-.106-.022-.287.014-.32.422-.387.338-.848.264-1.254l-.228-1.354-.523-3.001s-1.595 1.246-2.002 1.57c-.16.126-.299.276-.439.426-.277.298-.539.579-.961.68-.456.108-.903.273-1.336.432l-.427.155c-.224.08-.389.115-.537.115-.228 0-.413-.089-.581-.28-.023-.025-.235-.26-.428-.26a2.564 2.564 0 0 1-.461.048c-.418 0-.811-.136-1.203-.417a.43.43 0 0 0-.253-.064c-.075 0-.153.01-.221.02-.918.13-1.835.266-2.788.408l-1.014.15 1.218 10.482.25-.029a1.92 1.92 0 0 0 .223-.032c.162-.038.312-.056.447-.056.493 0 .849.245 1.154.796.087.156.31.241.493.297.245.074.494.131.743.189l.301.07.061.002c.132 0 .209-.023.284-.045a.816.816 0 0 1 .215-.044c.206.034.365.051.52.051.42 0 .791-.122 1.135-.372a.557.557 0 0 1 .308-.085Z" fill="#107899" fill-rule="evenodd" data-name="Path 2700"/></svg>