<svg xmlns="http://www.w3.org/2000/svg" width="14.915" height="11.764" viewBox="6607.713 555.561 14.915 11.764"><g data-name="Group 567"><g data-name="Group 566"><path d="M6611.685 556.884c.021-.114.032-.217.058-.317.152-.583.674-1 1.276-1.002a563.12 563.12 0 0 1 4.308 0c.658.003 1.223.532 1.294 1.186l.016.133h.126c.711 0 1.422-.003 2.132 0a1.718 1.718 0 0 1 1.731 1.728c.002 2.33.003 4.66.001 6.989a1.719 1.719 0 0 1-1.727 1.723c-3.819.001-7.639.001-11.458 0a1.717 1.717 0 0 1-1.726-1.712c-.004-2.333-.004-4.667 0-7a1.719 1.719 0 0 1 1.734-1.728c.704-.002 1.407 0 2.111 0h.124Zm3.49 9.587h5.6c.06 0 .122.001.183-.002a.847.847 0 0 0 .793-.658c.026-.118.036-.242.036-.363.002-2.269.002-4.537.001-6.806 0-.072 0-.145-.016-.214a.852.852 0 0 0-.856-.69h-2.682c-.272-.001-.453-.182-.455-.451l-.001-.388c-.005-.301-.2-.495-.504-.497-.2-.002-.402 0-.603 0l-3.554-.001c-.35.001-.536.185-.537.539v.301c0 .327-.17.497-.499.497h-2.616c-.533.001-.9.367-.9.901v6.936c0 .081.01.165.028.245.096.399.436.65.876.651h5.707Z" fill="#107899" fill-rule="evenodd" data-name="Path 2038"/><path d="M6615.175 558.588a3.515 3.515 0 0 1 3.511 3.53 3.51 3.51 0 0 1-3.536 3.503c-1.93-.004-3.496-1.582-3.494-3.523a3.514 3.514 0 0 1 3.519-3.51Zm-.006.88a2.647 2.647 0 0 0-2.648 2.654 2.64 2.64 0 0 0 2.653 2.645c1.453-.001 2.646-1.176 2.647-2.606 0-1.509-1.166-2.694-2.652-2.693Z" fill="#107899" fill-rule="evenodd" data-name="Path 2039"/><path d="M6620.924 559.313a.744.744 0 0 1-.732.749.747.747 0 0 1-.753-.74.742.742 0 0 1 .734-.746.737.737 0 0 1 .75.737Z" fill="#107899" fill-rule="evenodd" data-name="Path 2040"/></g></g></svg>