<svg xmlns="http://www.w3.org/2000/svg" width="24.984" height="22" viewBox="127.221 958.535 24.984 22"><path d="M147.933 980.535c-1.23 0-2.307-1.023-2.351-2.234-.009-.254.025-.512.06-.785.019-.147.095-.861.095-.861h-7.202l.164.516c.292.926.192 1.706-.306 2.382a2.36 2.36 0 0 1-1.343.901 2.396 2.396 0 0 1-2.744-1.266c-.566-1.134-.247-2.2.949-3.171l.193-.158-1.333-5.558-2.361-9.905c-.145-.615-.541-.927-1.175-.929l-2.789-.003c-.203-.001-.362-.053-.46-.15a.418.418 0 0 1-.109-.307c.002-.388.306-.471.561-.472l2.817.001c1.043.007 1.814.627 2.06 1.658l.12.488c.08.312.16.623.218.938.116.613.603.613.763.613h17.85c.144 0 .404.023.518.166.116.148.075.412.041.556l-2.293 9.635c-.122.513-.205.577-.738.577h-13.413l.238.905c.079.321.153.622.278.913.198.461.644.725 1.222.725l10.422.001c1.267.001 2.232.796 2.459 2.023a2.28 2.28 0 0 1-.418 1.792 2.539 2.539 0 0 1-1.993 1.009Zm-11.465-3.895a1.48 1.48 0 0 0-1.481 1.468 1.466 1.466 0 0 0 1.457 1.492c.815 0 1.487-.655 1.499-1.46a1.477 1.477 0 0 0-.425-1.048 1.485 1.485 0 0 0-1.042-.452h-.008Zm11.498.002c-.792 0-1.455.651-1.477 1.451-.011.388.135.759.411 1.046a1.473 1.473 0 0 0 2.542-.994 1.47 1.47 0 0 0-1.447-1.503h-.029Zm-13.136-7.346c.203.85.4 1.678.609 2.503.075.294.423.433.636.434.443.005.889.007 1.335.007l1.333-.003c.088 0 .164-.018.226-.032l.271-.064.106-.286-.273-3.684h-4.511l.268 1.125Zm10.306 2.942 1.599.001c.612 0 1.213-.001 1.815-.009.292-.003.505-.289.557-.48.093-.336.173-.676.254-1.016l.603-2.558h-4.505l-.323 4.062Zm-5.047-3.014c.064.832.126 1.649.198 2.466.022.271.306.538.573.54.63.008 1.26.009 1.902.009l1.444-.001.319-4.057h-4.516l.08 1.043Zm-6.565-5.417c.005.028.536 2.257.687 2.912.079.344.31.518.688.518l3.412-.006c.074-.001.145-.01.225-.023l.292-.045.121-.301-.277-3.701h-5.21l.062.646Zm12.013 3.414h4.659l.966-4.058h-5.305l-.32 4.058Zm-5.606-.009h4.675l.316-4.043h-5.316l.325 4.043Z" fill="#03627c" fill-rule="evenodd" data-name="Path 546"/></svg>