<svg xmlns="http://www.w3.org/2000/svg" width="13.83" height="12.452" viewBox="-1557.364 2630.363 13.83 12.452"><g data-name="Group 577"><path d="M-1555.911 2630.363h8.628c.4 0 .763.163 1.026.426s.426.626.426 1.026v5.846c0 .4-.163.763-.426 1.026a1.448 1.448 0 0 1-1.026.426h-4.743l-3.13 2.23a.398.398 0 0 1-.629-.324h-.001v-1.906h-.125c-.4 0-.763-.163-1.026-.426a1.449 1.449 0 0 1-.427-1.026v-5.846c0-.4.164-.763.427-1.026a1.447 1.447 0 0 1 1.026-.426Zm8.628.798h-8.628a.65.65 0 0 0-.46.193.65.65 0 0 0-.194.46v5.847c0 .18.074.343.193.461a.65.65 0 0 0 .461.193h.524c.221 0 .4.178.4.4v1.53l2.58-1.838a.396.396 0 0 1 .256-.092h4.868a.65.65 0 0 0 .461-.193.651.651 0 0 0 .193-.461v-5.846a.65.65 0 0 0-.193-.461.65.65 0 0 0-.461-.193Z" fill="#03627c" fill-rule="evenodd" data-name="Path 2042"/><path d="M-1554.293 2635.337a.7.7 0 0 0 .699-.7.7.7 0 0 0-.699-.698.7.7 0 0 0-.699.699.7.7 0 0 0 .699.699Z" fill="#03627c" fill-rule="evenodd" data-name="Path 2043"/><path d="M-1551.597 2635.337a.7.7 0 0 0 .7-.7.7.7 0 0 0-.7-.698.7.7 0 0 0-.699.699.7.7 0 0 0 .699.699Z" fill="#03627c" fill-rule="evenodd" data-name="Path 2044"/><path d="M-1548.901 2635.337a.7.7 0 0 0 .699-.7.7.7 0 0 0-.699-.698.7.7 0 0 0-.699.699.7.7 0 0 0 .699.699Z" fill="#03627c" fill-rule="evenodd" data-name="Path 2045"/><path d="M-1551.997 2640.511a.4.4 0 0 1 0-.8h3.251c.097 0 .186.036.255.094l2.581 1.838v-1.53a.4.4 0 0 1 .399-.401h.524a.651.651 0 0 0 .654-.653v-5.846a.65.65 0 0 0-.192-.461.652.652 0 0 0-.462-.193.399.399 0 1 1 0-.798 1.452 1.452 0 0 1 1.453 1.452v5.846a1.452 1.452 0 0 1-1.453 1.452h-.125v1.906h-.001a.397.397 0 0 1-.629.324l-3.13-2.23h-3.125Z" fill="#03627c" fill-rule="evenodd" data-name="Path 2046"/></g></svg>