<svg xmlns="http://www.w3.org/2000/svg" width="15.15" height="15.15" viewBox="-1197.774 2843.37 15.15 15.15"><g data-name="CompositeLayer"><path d="M-1197.775 2850.896a7.575 7.575 0 1 1 0 .1z" stroke-linejoin="round" stroke-linecap="round" stroke-width=".8" stroke="#107899" fill="transparent" data-name="Ellipse 108"/><path d="M-1190.195 2853.043a.474.474 0 0 1-.354-.14.477.477 0 0 1-.14-.355c0-.253.063-.53.193-.831.13-.302.331-.57.603-.802.181-.156.348-.31.5-.462.152-.152.276-.327.37-.525.094-.198.141-.439.141-.724 0-.207-.049-.402-.146-.583a1.177 1.177 0 0 0-.413-.443 1.2 1.2 0 0 0-.656-.17c-.318 0-.58.059-.788.175a1.096 1.096 0 0 0-.46.486 1.65 1.65 0 0 0-.152.729.489.489 0 0 1-.136.355.478.478 0 0 1-.36.141.482.482 0 0 1-.496-.496c0-.453.099-.852.297-1.195.197-.344.476-.614.836-.812.36-.197.779-.296 1.259-.296.421 0 .795.09 1.122.267.327.178.587.424.778.74.191.313.287.681.287 1.102 0 .363-.059.677-.175.943a2.472 2.472 0 0 1-.476.714c-.201.211-.432.42-.691.627a1.054 1.054 0 0 0-.35.53 1.979 1.979 0 0 0-.097.53.473.473 0 0 1-.496.495Zm0 1.799a.645.645 0 0 1-.471-.2.643.643 0 0 1-.199-.471c0-.188.066-.348.199-.481a.644.644 0 0 1 .471-.199c.188 0 .35.066.481.199.133.133.2.293.2.48 0 .182-.067.34-.2.472a.654.654 0 0 1-.48.2Z" fill="#107899" fill-rule="evenodd" data-name="Path 2412"/></g></svg>