<svg xmlns="http://www.w3.org/2000/svg" width="17.981" height="15.929" viewBox="-1199.186 2684.39 17.981 15.929"><g data-name="Group 630"><g data-name="Group 629"><path d="M-1184.292 2700.32h-11.844a.946.946 0 0 1-.945-.946v-7.57l.297-.045c.379-.059.729-.217 1.014-.457l.577-.485v4.27h9.958v-4.312l.58.504c.29.251.64.416 1.014.48l.293.05v7.565a.945.945 0 0 1-.944.945Zm-12.087-7.93v6.984c0 .135.109.243.243.243h11.844a.242.242 0 0 0 .242-.243v-6.99a2.826 2.826 0 0 1-.483-.188v3.594h-11.361v-3.58a2.895 2.895 0 0 1-.485.18Zm13.094-1.086a2.083 2.083 0 0 1-.669-.113l-.031-.011-.019-.006-.136-.057a2.053 2.053 0 0 1-.391-.23h-.069l-.079-.123a2.393 2.393 0 0 1-.266-.288l-.07-.099a2.075 2.075 0 0 1-3.456 0 2.077 2.077 0 0 1-3.456 0 2.077 2.077 0 0 1-3.455 0 2.114 2.114 0 0 1-.809.707 1.831 1.831 0 0 1-.219.091c-1.486.518-2.776-.583-2.776-1.955v-.137l2.404-2.582v-1.169c0-.519.413-.942.918-.942h11.301c.505 0 .916.423.916.942v1.137l2.442 2.619v.138a2.081 2.081 0 0 1-2.08 2.078Zm-.357-.751.032.009c.117.027.223.041.325.041a1.38 1.38 0 0 0 1.372-1.246l-2.182-2.34h-12.21l-2.173 2.334a1.386 1.386 0 0 0 1.788 1.181l.053-.021c.04-.013.081-.03.12-.048.06-.031.101-.05.139-.075.169-.109.31-.248.418-.408l.025-.042c.029-.046.052-.095.076-.142.084-.178.127-.372.127-.572h.702c0 .759.617 1.377 1.376 1.377.759 0 1.376-.618 1.376-1.377h.702a1.378 1.378 0 0 0 2.754 0h.702a1.38 1.38 0 0 0 1.378 1.377c.758 0 1.375-.618 1.375-1.377h.702c0 .238.058.463.174.671.04.063.058.093.079.121.048.065.07.092.093.116.065.072.096.1.13.128l.044.04c.096.075.203.139.322.19h.148l.033.063Zm-12.602-4.237h12.084a.273.273 0 0 0-.07-.011h-11.942a.275.275 0 0 0-.072.01Zm.164-.712h11.731v-.272c0-.132-.096-.24-.214-.24h-11.301c-.119 0-.216.108-.216.24v.272Z" fill="#107899" fill-rule="evenodd" data-name="Path 2414"/></g></g></svg>