<svg xmlns="http://www.w3.org/2000/svg" width="13.504" height="17.559" viewBox="-1196.942 2897.832 13.504 17.559"><g data-name="Group 634"><path d="M-1187.876 2915.391c-2.005 0-5.624-.025-6.792-.093a2.379 2.379 0 0 1-2.22-2.277 93.034 93.034 0 0 1 .001-6.361c.039-1.181.972-2.146 2.217-2.298.454-.055.535-.259.533-.638l-.002-.274c-.004-.714-.01-1.454.054-2.174.171-1.924 1.867-3.437 3.863-3.444 2.013 0 3.725 1.52 3.897 3.458.062.685.058 1.392.055 2.075l-.003.422c0 .372.13.522.496.568 1.325.17 2.213 1.101 2.263 2.37.094 2.284.101 4.178.024 5.958-.073 1.714-1.106 2.673-2.908 2.701-.297.005-.824.007-1.478.007Zm-2.31-10.117c-1.308 0-2.616.009-3.925.025-1.213.017-1.837.66-1.855 1.91a197.457 197.457 0 0 0 0 5.228c.018 1.297.664 1.934 1.977 1.948.491.004.98.005 1.471.005l6.07-.002c1.352-.023 1.989-.65 2.006-1.973.021-1.725.019-3.45 0-5.177-.016-1.271-.649-1.924-1.88-1.94a308.605 308.605 0 0 0-3.863-.024Zm2.898-1.002v-.101c0-.256.005-.51.012-.762.018-.716.036-1.352-.03-1.972-.16-1.502-1.37-2.601-2.877-2.611l-.019-.115v.115c-1.523 0-2.744 1.101-2.903 2.617-.065.612-.05 1.244-.033 1.855.008.298.015.585.015.873v.101h5.835Z" fill="#107899" fill-rule="evenodd" data-name="Path 2424"/><path d="M-1190.3 2911.592a2.564 2.564 0 0 1-.198-.257l.01-.208c.017-.517.035-1.023-.539-1.404-.482-.317-.251-.965-.169-1.155.168-.391.49-.614.904-.628.53 0 .956.262 1.117.686.151.403.083.959-.29 1.19-.468.292-.484.668-.458 1.06l.011.111c.015.148.022.257-.014.337-.044.1-.124.189-.202.272l-.089.095-.083-.099Z" fill="#107899" fill-rule="evenodd" data-name="Path 2425"/></g></svg>