<svg xmlns="http://www.w3.org/2000/svg" width="14.425" height="13.07" viewBox="-1197.412 2737.121 14.425 13.07"><path d="M-1190.197 2750.19a.497.497 0 0 1-.285-.107 35.07 35.07 0 0 1-5.108-4.401c-.762-.793-1.278-1.597-1.575-2.458-.561-1.621-.214-4.039 1.534-5.326a4.02 4.02 0 0 1 2.373-.772 3.69 3.69 0 0 1 2.782 1.244l.188.21.217-.128c.097-.078.202-.166.307-.252.267-.224.487-.408.725-.552a3.68 3.68 0 0 1 1.913-.527c1.053 0 2.079.429 2.817 1.176.701.711 1.117 1.592 1.272 2.692.208 1.476-.23 2.852-1.343 4.206-.557.679-1.215 1.286-1.85 1.874l-.432.402c-1.116 1.044-2.326 1.945-3.255 2.613a.486.486 0 0 1-.28.107Zm-3.066-12.217c-.856 0-1.71.371-2.283.991-.657.71-.98 1.602-1.015 2.81l.014.161c.015.15.032.334.067.515.039.21.102.419.177.62.281.745.739 1.424 1.442 2.139 1.483 1.508 2.913 2.756 4.372 3.816.064.047.164.109.291.109a.494.494 0 0 0 .288-.107c1.193-.865 2.378-1.877 3.841-3.28.605-.582 1.226-1.229 1.665-2.029.816-1.487.76-3.004-.16-4.388a3.049 3.049 0 0 0-2.546-1.358c-.442 0-.864.094-1.257.28-.596.281-1.074.753-1.423 1.404-.078.147-.157.225-.266.264a.496.496 0 0 1-.15.026c-.16 0-.303-.106-.412-.307-.577-1.058-1.541-1.666-2.645-1.666Z" fill="#107899" fill-rule="evenodd" data-name="Path 2411"/></svg>