<svg xmlns="http://www.w3.org/2000/svg" width="15" height="15" viewBox="-864.472 2485.014 15 15"><path d="m-850.019 2489.541-.663.663-3.978-3.979.663-.662a1.876 1.876 0 0 1 2.652 0l1.326 1.325c.73.733.73 1.92 0 2.653Zm-9.282 7.953a.467.467 0 0 0 0 .663.467.467 0 0 0 .663 0l7.293-7.291-.664-.662-7.292 7.29Zm-3.316-3.314a.47.47 0 0 0 .663.663l7.294-7.291-.663-.662-7.294 7.29Zm2.65 4.638c-.225-.225-.332-.509-.372-.802a1.751 1.751 0 0 1-.289.029c-.501 0-.972-.196-1.326-.549a1.87 1.87 0 0 1-.549-1.326c0-.092.013-.18.026-.27a1.396 1.396 0 0 1-.804-.393c-.021-.02-.029-.049-.047-.071l-1.144 4.578 4.568-1.144c-.02-.018-.043-.032-.063-.052Z" fill="#03627c" fill-rule="evenodd" data-name="Path 2426"/></svg>