<svg xmlns="http://www.w3.org/2000/svg" width="13.671" height="13.026" viewBox="-1197.435 2790.505 13.671 13.026"><path d="M-1194.273 2803.93a.243.243 0 0 1-.241-.286l.756-4.409-3.203-3.122a.244.244 0 0 1 .136-.417l4.426-.643 1.98-4.012a.246.246 0 0 1 .22-.136h0c.093 0 .178.053.219.136l1.979 4.012 4.427.643a.244.244 0 0 1 .136.417l-3.203 3.123.756 4.408a.244.244 0 0 1-.355.258l-3.959-2.081-3.96 2.081a.245.245 0 0 1-.114.028Z" stroke-linejoin="round" stroke-linecap="round" stroke-width=".8" stroke="#107899" fill="transparent" data-name="Path 2409"/></svg>