<svg xmlns="http://www.w3.org/2000/svg" width="15.939" height="15.938" viewBox="343.218 158.33 15.939 15.938"><g data-name="Group 193"><path d="m358.575 163.14-.705.704-4.227-4.227.705-.704a1.995 1.995 0 0 1 2.818 0l1.409 1.409a1.997 1.997 0 0 1 0 2.818Zm-9.863 8.451a.497.497 0 0 0 0 .704.495.495 0 0 0 .704 0l7.75-7.746-.706-.705-7.748 7.747Zm-3.523-3.521a.497.497 0 1 0 .704.704l7.75-7.747-.704-.704-7.75 7.747Zm2.816 4.928c-.24-.239-.353-.542-.396-.852a1.959 1.959 0 0 1-.307.031 1.985 1.985 0 0 1-1.409-.584 1.988 1.988 0 0 1-.583-1.409c0-.097.014-.192.027-.286a1.488 1.488 0 0 1-.854-.418c-.022-.023-.031-.052-.05-.076l-1.215 4.864 4.853-1.215c-.021-.019-.045-.034-.066-.055Z" fill="#fff" fill-rule="evenodd" data-name="Path 542"/></g></svg>