<svg xmlns="http://www.w3.org/2000/svg" width="17.319" height="12.993" viewBox="2598.883 770.133 17.319 12.993"><g data-name="Group 364"><g data-name="Group 362"><path d="M2613.922 781.358h-12.759a.35.35 0 0 1-.349-.35v-.682c0-.749 0-1.521.004-2.279v-.126c0-.102.043-.199.122-.265l.094-.081 3.311-2.647a.349.349 0 0 1 .432.004l1.431 1.144 4.101-3.468a.347.347 0 0 1 .462.01l3.265 2.937a.7.7 0 0 1 .24.538c-.004 1.294-.004 2.604-.004 3.871v1.044a.35.35 0 0 1-.35.35Zm-12.41-.699h12.06v-.695c0-1.267 0-2.579.004-3.872l-3.05-2.751-4.084 3.454a.35.35 0 0 1-.446.007l-1.44-1.151-3.039 2.433c-.004.747-.004 1.506-.004 2.242v.333Z" fill="#03627c" fill-rule="evenodd" data-name="Path 1318"/></g><g data-name="Group 363"><path d="M2602.565 775.386a1.75 1.75 0 0 1-.004-3.499c.967 0 1.751.782 1.751 1.744 0 .465-.179.904-.504 1.236a1.736 1.736 0 0 1-1.243.519Zm0-2.8c-.581 0-1.052.473-1.052 1.053a1.052 1.052 0 0 0 1.796.736 1.06 1.06 0 0 0 .303-.744c0-.576-.47-1.045-1.047-1.045Z" fill="#03627c" fill-rule="evenodd" data-name="Path 1319"/></g><path d="M2600.725 783.126a1.844 1.844 0 0 1-1.842-1.842v-9.31c0-1.015.826-1.841 1.842-1.841h13.635c1.015 0 1.842.826 1.842 1.841v9.31a1.845 1.845 0 0 1-1.842 1.842h-13.635Zm0-12.233c-.596 0-1.081.485-1.081 1.081v9.31c0 .596.485 1.081 1.081 1.081h13.635c.596 0 1.08-.485 1.08-1.081v-9.31c0-.596-.484-1.081-1.08-1.081h-13.635Z" fill="#03627c" fill-rule="evenodd" data-name="Path 1320"/></g></svg>