<svg xmlns="http://www.w3.org/2000/svg" width="17.985" height="20" viewBox="-1287.676 3297.621 17.985 20"><g data-name="Group 578"><path d="M-1278.684 3308.06a5.225 5.225 0 0 1-5.218-5.22 5.224 5.224 0 0 1 5.218-5.219 5.224 5.224 0 0 1 5.218 5.218 5.225 5.225 0 0 1-5.218 5.22Zm0-9.538a4.322 4.322 0 0 0-4.317 4.317 4.321 4.321 0 0 0 4.317 4.317 4.322 4.322 0 0 0 4.318-4.317 4.323 4.323 0 0 0-4.318-4.317Z" fill="#919191" fill-rule="evenodd" data-name="Path 2048"/><path d="M-1287.676 3317.621v-3.089a5.766 5.766 0 0 1 5.758-5.76h.29c.859.797 1.856 1.193 2.944 1.193a4.3 4.3 0 0 0 2.856-1.078l.096-.073.102-.037.186-.005c3.17 0 5.753 2.584 5.753 5.76v3.09h-17.985Zm5.633-7.946c-2.609.067-4.733 2.246-4.733 4.857v2.187h16.184v-2.187c0-2.611-2.123-4.79-4.733-4.857-.991.776-2.16 1.19-3.359 1.19-1.2 0-2.368-.414-3.291-1.167l-.029-.024-.039.001Z" fill="#919191" fill-rule="evenodd" data-name="Path 2049"/></g></svg>