<svg xmlns="http://www.w3.org/2000/svg" width="12.636" height="13.718" viewBox="-757.359 2738.455 12.636 13.718"><g data-name="Group 663"><path d="M-751.041 2745.57c-2.01 0-3.645-1.597-3.645-3.558 0-1.961 1.635-3.557 3.645-3.557 2.011 0 3.646 1.596 3.646 3.557 0 1.96-1.635 3.557-3.646 3.557Zm0-6.587c-1.712 0-3.105 1.358-3.105 3.029 0 1.671 1.393 3.029 3.105 3.029 1.713 0 3.106-1.358 3.106-3.029 0-1.67-1.393-3.03-3.106-3.03Z" fill="#107899" fill-rule="evenodd" data-name="Path 2455"/><path d="M-757.359 2752.173v-2.085c0-2.168 1.807-3.93 4.029-3.93h.158l.037.032a3.175 3.175 0 0 0 2.094.791c.76 0 1.49-.27 2.055-.757l.037-.032.089-.034h.109c2.221 0 4.028 1.762 4.028 3.93v2.085h-12.636Zm12.097-.527v-1.558c0-1.863-1.542-3.38-3.445-3.403a3.695 3.695 0 0 1-2.334.823 3.694 3.694 0 0 1-2.333-.823c-1.903.023-3.445 1.54-3.445 3.403v1.558h11.557Z" fill="#107899" fill-rule="evenodd" data-name="Path 2456"/></g></svg>