<svg xmlns="http://www.w3.org/2000/svg" width="13.048" height="11.851" viewBox="-756.23 2847.353 13.048 11.851"><path d="M-756.041 2859.204a.191.191 0 0 1-.179-.128.19.19 0 0 1 .009-.138l-.019-6.768c0-.06.029-.118.078-.153l2.213-1.617-.016-.407c0-.724.613-1.311 1.366-1.311h.978l1.793-1.294a.191.191 0 0 1 .112-.035c.041 0 .08.012.112.036l1.749 1.278 1.023.015c.752 0 1.365.587 1.365 1.31v.439l2.197 1.586a.19.19 0 0 1 .078.15v6.632l-.016.152c.017.032.02.081.005.124a.19.19 0 0 1-.179.13h-12.669Zm.466-.309 11.759-.07-4.13-3.081-1.626 1.264a.18.18 0 0 1-.115.04.194.194 0 0 1-.111-.037l-1.728-1.25-4.049 3.134Zm-.276-.393 4.042-3.01-4.042-2.872v5.882Zm8.247-2.947 4.104 2.916-.061-5.85-4.043 2.934Zm-4.985-6.495c-.544 0-.987.419-.987.933v3.83l3.91 2.815 1.629-1.266.105-.046 2.112-1.534-.016-3.8c0-.513-.443-.932-.987-.932h-5.766Zm7.132 4.544.116-.16 1.694-1.302-1.81-1.262v2.724Zm-10.306-1.402 1.87 1.325-.061-2.646-1.809 1.32Zm4.722-3.45 2.692-.07-1.356-.906-1.336.976Z" fill="#107899" fill-rule="evenodd" data-name="Path 2454"/></svg>