<svg xmlns="http://www.w3.org/2000/svg" width="11.555" height="11.422" viewBox="-756.3 2794.088 11.555 11.422"><path d="M-747.506 2805.51a4.185 4.185 0 0 1-1.491-.243 44.626 44.626 0 0 1-1.047-.38c-.741-.28-1.41-.665-2.103-1.21-.749-.588-1.472-1.294-2.21-2.157-.907-1.06-1.386-2.287-1.736-3.35-.104-.315-.238-.796-.2-1.317.06-.83.405-1.581 1.027-2.234a1.07 1.07 0 0 1 .464-.288c.297-.085.599-.15.892-.21.12-.025.179-.033.242-.033.268 0 .495.141.639.4l.07.124c.133.24.242.436.355.628l.803 1.342c.192.318.158.66-.091.916-.153.157-.314.303-.472.446l-.339.297c-.144.123-.234.198-.321.28-.069.06-.058.078-.035.114l.213.352c.22.366.445.741.696 1.089.514.713 1.2 1.316 2.099 1.843.223.13.449.253.719.397l.108-.034c.057-.073.14-.166.222-.258l.369-.415c.111-.129.228-.261.359-.387.199-.187.383-.275.578-.275.156 0 .318.053.512.167l1.772 1.026.316.177a.668.668 0 0 1 .349.658c-.03.418-.125.81-.281 1.166a1.121 1.121 0 0 1-.268.367c-.669.608-1.47.973-2.197 1.002H-747.506Zm-6.154-10.777-.036.004c-.337.07-.637.133-.921.214a.422.422 0 0 0-.165.107c-.524.55-.803 1.155-.852 1.843-.023.314.029.646.17 1.073.33 1 .779 2.155 1.614 3.132.709.83 1.401 1.505 2.117 2.068.632.496 1.241.85 1.862 1.086.33.124.713.267 1.094.399.368.126.697.205 1.195.205.621-.024 1.274-.32 1.836-.83a.437.437 0 0 0 .111-.149 2.89 2.89 0 0 0 .229-.956l-.506-.326c-.55-.318-1.081-.626-1.611-.936-.074-.043-.127-.074-.16-.074-.028 0-.055.021-.13.093-.11.104-.211.22-.318.343l-.298.336c-.131.147-.234.262-.34.373a.718.718 0 0 1-.525.237.751.751 0 0 1-.355-.092c-.277-.148-.51-.274-.742-.411-.977-.571-1.73-1.233-2.3-2.023-.26-.362-.489-.743-.711-1.113l-.225-.369c-.189-.31-.131-.663.153-.922.084-.076.561-.486.561-.486.231-.206.392-.351.543-.507.032-.033.053-.053 0-.143l.003.007c-.004 0-.1-.145-.81-1.355a36.14 36.14 0 0 1-.344-.605l-.088-.159-.057-.116.006.052Z" fill="#107899" fill-rule="evenodd" data-name="Path 2457"/></svg>