<svg xmlns="http://www.w3.org/2000/svg" width="11.212" height="16" viewBox="396.863 2584.351 11.212 16"><g data-name="Group 738"><path d="M397.976 2593.86c-1.675-2.232-1.428-5.91.529-7.867a5.572 5.572 0 0 1 3.965-1.642 5.57 5.57 0 0 1 3.965 1.642c1.958 1.958 2.201 5.64.521 7.88l-4.486 6.478-4.494-6.49Zm4.494-8.726a4.79 4.79 0 0 0-3.41 1.413c-1.702 1.701-1.911 4.905-.449 6.855l3.859 5.573 3.85-5.56c1.469-1.959 1.263-5.167-.439-6.868a4.793 4.793 0 0 0-3.411-1.413Z" fill="#107899" fill-rule="evenodd" data-name="Path 2691"/><path d="M402.521 2592.537c-1.45 0-2.63-1.18-2.63-2.63s1.18-2.629 2.63-2.629 2.63 1.179 2.63 2.629-1.18 2.63-2.63 2.63Zm0-4.427c-.991 0-1.797.806-1.797 1.797a1.8 1.8 0 0 0 1.797 1.798 1.8 1.8 0 0 0 1.797-1.798c0-.991-.806-1.797-1.797-1.797Z" fill="#107899" fill-rule="evenodd" data-name="Path 2692"/></g></svg>