<svg xmlns="http://www.w3.org/2000/svg" width="16.181" height="20" viewBox="-1380.525 3298.874 16.181 20"><g data-name="Group 580"><g data-name="Group 579"><path d="M-1377.903 3298.874h10.938c.026.007.051.016.078.02 1.38.14 2.5 1.339 2.536 2.726.012.463.005.925.005 1.388 0 3.52-.001 7.04.002 10.56 0 .216-.07.383-.227.532-1.621 1.537-3.24 3.078-4.858 4.619a.554.554 0 0 1-.397.155c-2.636 0-5.272 0-7.908-.002a2.6 2.6 0 0 1-.8-.137 2.907 2.907 0 0 1-1.991-2.789c.01-4.714.003-9.428.004-14.142.001-.142.002-.287.025-.427.197-1.206.876-2.005 2.038-2.384.179-.059.37-.08.555-.119Zm12.467 12.98v-.088c0-3.339 0-6.68-.003-10.019 0-.168-.026-.34-.071-.502-.22-.777-.914-1.282-1.749-1.282h-5.816c-1.517 0-3.034-.002-4.551 0-1.022.002-1.806.779-1.807 1.789-.001 4.748 0 9.495.001 14.243 0 .115.009.232.032.344.171.862.884 1.444 1.774 1.445 2.075.002 4.149 0 6.224 0 .033 0 .066-.003.11-.005v-.126c0-1.211-.006-2.422.003-3.632a2.102 2.102 0 0 1 .6-1.476c.442-.465.994-.687 1.633-.689 1.163-.004 2.326-.002 3.489-.002h.131Zm-4.761 5.92c.095.019.169.015.245-.058.518-.5 1.042-.995 1.565-1.49l2.866-2.728c.032-.03.08-.064.082-.098.009-.151.003-.303.003-.454-.027-.003-.04-.006-.053-.006h-3.579c-.243 0-.472.066-.67.21-.335.246-.465.59-.465.993l.001 3.53c0 .032.003.065.005.102Z" fill="#919191" fill-rule="evenodd" data-name="Path 2051"/><path d="M-1376.637 3307.117c-.354 0-.596-.253-.574-.595a.539.539 0 0 1 .45-.485.956.956 0 0 1 .142-.009h9.631c.288 0 .492.134.571.372a.545.545 0 0 1-.507.716c-.119.004-8.101 0-9.713 0Z" fill="#919191" fill-rule="evenodd" data-name="Path 2052"/><path d="M-1376.636 3304.444c-.355 0-.597-.253-.575-.595a.54.54 0 0 1 .582-.494h9.651c.278 0 .483.137.561.371a.547.547 0 0 1-.507.717c-.109.003-.218.001-.327.001h-9.385Z" fill="#919191" fill-rule="evenodd" data-name="Path 2053"/><path d="M-1374.524 3312.463c-.707-.001-1.415.001-2.122-.001-.343-.001-.582-.251-.565-.584a.538.538 0 0 1 .439-.495.809.809 0 0 1 .131-.013c1.412 0 2.823-.001 4.234.001.265 0 .471.15.544.382.111.358-.151.706-.539.709-.551.003-1.102 0-1.653 0h-.469Z" fill="#919191" fill-rule="evenodd" data-name="Path 2054"/><path d="M-1374.519 3308.7c.703 0 1.407 0 2.111.002.324 0 .563.227.568.53a.542.542 0 0 1-.541.558c-.204.003-.408 0-.612 0h-3.652c-.393 0-.659-.351-.543-.712a.54.54 0 0 1 .526-.376c.303-.003.606-.001.908-.001h1.235Z" fill="#919191" fill-rule="evenodd" data-name="Path 2055"/></g></g></svg>