<svg xmlns="http://www.w3.org/2000/svg" width="9.961" height="13" viewBox="2814.281 2635.985 9.961 13"><g data-name="Group 826"><g data-name="Group 825"><path d="M2816.417 2648.981c-.7 0-1.209-.193-1.6-.606a1.803 1.803 0 0 1-.521-1.258c-.015-1.568-.024-2.984.001-4.41.018-.98.733-1.739 1.738-1.842l.298-.041.07-.164v-.474c0-.378-.002-.752.002-1.126.003-.234.007-.472.042-.702.197-1.286 1.363-2.328 2.657-2.37l.107-.003c1.38 0 2.542.903 2.826 2.197a4.1 4.1 0 0 1 .075.772c.01.397.007.794.005 1.196l-.001.653.34.055c.117.017.23.034.338.06.84.21 1.413.926 1.428 1.781.027 1.654.027 3.102-.002 4.424-.022 1.052-.807 1.796-1.952 1.852-.172.008-.345.01-.519.01l-5.332-.004Zm2.668-.55 1.484-.004c.6-.002 1.201-.004 1.801-.022a1.298 1.298 0 0 0 1.269-1.075c.04-.21.047-.428.047-.643.004-1.184.004-2.368.001-3.552a4.686 4.686 0 0 0-.035-.567 1.298 1.298 0 0 0-1.038-1.12 3.028 3.028 0 0 0-.561-.053c-1.261-.003-5.476-.004-5.476-.004-.16 0-.32.009-.48.023-.62.053-1.097.471-1.215 1.066a2.827 2.827 0 0 0-.048.545c-.004.569-.003 1.14-.003 1.708v.915c-.003.433-.004.866.006 1.298.023.923.532 1.443 1.435 1.465.398.01.797.013 1.195.013l1.618-.006v.014Zm.208-11.902c-.078 0-.157.005-.236.014-1.231.139-2.095 1.087-2.1 2.305v1.66c0 .036.02.276.02.276l.167.049h4.414s.001-1.669-.002-2.169a1.459 1.459 0 0 0-.047-.316c-.238-1.054-1.17-1.819-2.216-1.819Z" fill="#bebebe" fill-rule="evenodd" data-name="Path 2914"/><path d="M2819.257 2646.25c-.102-.003-.12-.101-.12-.16l-.001-.529c.02-.252-.007-.512-.337-.703-.273-.158-.329-.538-.225-.813a.75.75 0 0 1 .677-.476c.372.021.646.248.722.564a.711.711 0 0 1-.34.794.436.436 0 0 0-.253.446c.01.2.007.402.004.603v.115c-.002.038-.127.159-.127.159Z" fill="#bebebe" fill-rule="evenodd" data-name="Path 2915"/></g></g></svg>