<svg xmlns="http://www.w3.org/2000/svg" width="15.946" height="13.722" viewBox="2895.073 768.863 15.946 13.722"><path d="M2895.076 781.128c.018 1.112.994 1.728 1.942 1.34 1.665-.68 3.323-1.381 4.984-2.073 2.683-1.118 5.368-2.234 8.049-3.355.79-.33 1.128-.993.897-1.725-.131-.41-.412-.678-.805-.841-4.381-1.829-8.762-3.661-13.145-5.486-.595-.247-1.171-.122-1.559.318-.41.465-.471.994-.202 1.545.678 1.395 1.37 2.783 2.052 4.175.129.264.32.406.597.265.279-.141.264-.38.136-.64-.649-1.316-1.29-2.636-1.937-3.953-.139-.282-.282-.561-.013-.84.253-.264.528-.145.804-.03 4.254 1.775 8.508 3.549 12.764 5.32.268.112.516.231.52.569.006.342-.244.461-.511.573-4.267 1.781-8.532 3.564-12.797 5.348-.278.116-.552.223-.8-.052-.23-.256-.122-.51.006-.769.592-1.205 1.186-2.41 1.766-3.621.104-.217.236-.289.473-.307 2.239-.172 4.476-.36 6.714-.543.042-.003.083-.01.124-.012.282-.011.46-.155.444-.436-.018-.309-.237-.417-.526-.394-1.395.115-2.79.233-4.186.348-.953.078-1.905.167-2.859.227-.402.025-.643.173-.822.555-.598 1.279-1.244 2.536-1.86 3.806-.124.258-.197.54-.25.688Z" fill="#03627c" fill-rule="evenodd" data-name="Path 1317"/></svg>