<svg xmlns="http://www.w3.org/2000/svg" width="16.002" height="16" viewBox="1531.023 2431.186 16.002 16"><path d="M1542.46 2442.185c.142.119.265.243.409.337.087.057.213.108.308.091a.894.894 0 0 1 .828.26c.921.912 1.84 1.824 2.747 2.75a.893.893 0 0 1-.021 1.303c-.364.349-.897.352-1.279-.024a159.698 159.698 0 0 1-2.719-2.73c-.146-.15-.299-.41-.269-.59.076-.464-.202-.679-.483-.922-3.042 2.644-7.309 1.918-9.485-.758-2.153-2.647-1.929-6.452.557-8.9 2.35-2.314 6.198-2.428 8.768-.275 2.62 2.195 3.284 6.374.639 9.458Zm.596-4.419a5.456 5.456 0 0 0-5.484-5.491c-2.997.004-5.454 2.447-5.455 5.425-.002 3.082 2.431 5.532 5.486 5.525a5.458 5.458 0 0 0 5.453-5.459Z" fill="#107899" fill-rule="evenodd" data-name="Path 2706"/></svg>