<svg xmlns="http://www.w3.org/2000/svg" width="10.603" height="12.287" viewBox="1538.587 2552.535 10.603 12.287"><g data-name="Group 766"><path d="M1546.769 2564.822h-5.781a1.445 1.445 0 0 1-1.445-1.443v-7.592a.361.361 0 0 1 .723 0v7.592c0 .396.324.72.722.72h5.781a.723.723 0 0 0 .724-.72v-7.592a.362.362 0 0 1 .723 0v7.592c0 .796-.649 1.443-1.447 1.443Z" fill="#606060" fill-rule="evenodd" data-name="Path 2707"/><path d="M1545.686 2562.653a.362.362 0 0 1-.361-.361v-5.06a.362.362 0 0 1 .723 0v5.06c0 .2-.163.361-.362.361Zm-1.807 0a.362.362 0 0 1-.361-.361v-5.06a.362.362 0 0 1 .723 0v5.06c0 .2-.163.361-.362.361Zm-1.806 0a.36.36 0 0 1-.362-.361v-5.06a.361.361 0 1 1 .723 0v5.06c0 .2-.163.361-.361.361Zm6.757-7.589h-9.882a.361.361 0 0 1 0-.722h2.402v-.722c0-.599.488-1.085 1.087-1.085h2.884c.6 0 1.087.486 1.087 1.085v.722h2.421a.36.36 0 0 1 .001.722Zm-6.757-.722h3.613v-.722c0-.2-.164-.362-.364-.362h-2.885a.362.362 0 0 0-.364.362v.722Z" fill="#606060" fill-rule="evenodd" data-name="Path 2708"/></g></svg>