<svg xmlns="http://www.w3.org/2000/svg" width="22.989" height="21.904" viewBox="6386.431 372.807 22.989 21.904"><g data-name="Group 551"><g data-name="Group 549"><path d="M6391.076 394.71a.409.409 0 0 1-.406-.481l1.272-7.414-5.387-5.25a.412.412 0 0 1 .23-.702l7.443-1.081 3.33-6.746a.409.409 0 0 1 .368-.229c.156 0 .3.088.368.229l3.329 6.746 7.444 1.081a.412.412 0 0 1 .229.702l-5.387 5.251 1.272 7.414a.414.414 0 0 1-.164.402.408.408 0 0 1-.434.031l-6.657-3.5-6.659 3.5a.406.406 0 0 1-.19.047Z" fill="#fff" fill-rule="evenodd" data-name="Path 2028"/></g><g data-name="Group 550"><path d="M6391.076 394.71a.409.409 0 0 1-.406-.481l1.272-7.414-5.387-5.25a.412.412 0 0 1 .23-.702l7.443-1.081 3.33-6.746a.409.409 0 0 1 .368-.229h0c.156 0 .3.088.368.229l3.329 6.746 7.444 1.081a.412.412 0 0 1 .229.702l-5.387 5.251 1.272 7.414a.414.414 0 0 1-.164.402.408.408 0 0 1-.434.031l-6.657-3.5-6.659 3.5a.406.406 0 0 1-.19.047Z" stroke-linejoin="round" stroke-linecap="round" stroke-width=".5" stroke="#ccc" fill="transparent" data-name="Path 2029"/></g></g></svg>