<svg xmlns="http://www.w3.org/2000/svg" width="10.761" height="10.253" viewBox="1886.376 2494.18 10.761 10.253"><path d="M1888.55 2504.432a.193.193 0 0 1-.19-.225l.595-3.47-2.521-2.458a.194.194 0 0 1-.049-.197.193.193 0 0 1 .156-.131l3.484-.506 1.559-3.158a.19.19 0 0 1 .172-.107.19.19 0 0 1 .173.107l1.558 3.158 3.485.506a.193.193 0 0 1 .155.131.19.19 0 0 1-.049.197l-2.521 2.458.595 3.47a.191.191 0 0 1-.279.203l-3.117-1.638-3.117 1.638a.188.188 0 0 1-.089.022Z" fill="#e97500" fill-rule="evenodd" data-name="Path 2711"/></svg>