<svg xmlns="http://www.w3.org/2000/svg" width="13.783" height="16" viewBox="844.276 2744.251 13.783 16"><g data-name="Group 759"><g data-name="Group 758"><path d="M845.98 2759.345v-.124l.009-5.99c.001-.226.011-.454.023-.681.008-.155.111-.26.267-.28.111-.013.223-.013.346-.02l.022-.491c.092-.007.176-.009.257-.024.03-.006.071-.04.079-.069.044-.164.045-.173.221-.175.502-.006 1.003-.007 1.504-.01h.415l.001-.356.014-1.918c.002-.136.083-.266.22-.266.24-.002.363-.168.522-.298a.545.545 0 0 0 .218-.529c-.016-.136-.002-.276.003-.415.007-.178.057-.228.239-.231.161-.003.322 0 .494 0 .001-.036.004-.066.004-.096l.013-.933c0-.037.008-.074.015-.111.014-.08.063-.12.144-.121h.22v-.11l.002-1.502a1.84 1.84 0 0 1 .017-.258c.005-.031.037-.075.064-.082.051-.012.105.005.12.069a.33.33 0 0 1 .009.077c.006.412.011.824.014 1.235.002.185.001.369.001.57.069 0 .134-.002.198.001.105.004.15.036.165.14.016.114.021.229.023.344.004.228.002.455.003.683 0 .028.003.056.005.092h.4c.287.001.328.04.335.329.005.185.002.37.009.553a.223.223 0 0 0 .053.127c.098.11.204.212.304.32a.375.375 0 0 0 .287.132.459.459 0 0 1 .197.07c.077.041.096.113.096.203-.002 2.229-.002 4.459-.001 6.688v.123h.118c.726.003 1.451.006 2.177.011.104 0 .208.008.311.02.183.019.222.062.225.246.008.521.015 1.042.018 1.564.003.457.001.916.001 1.374v.113c.038.002.071.005.104.005l1.348.013c.204.002.223.02.226.228.002.172-.004.345-.005.518-.001.089-.041.12-.134.121-.653.003-1.307.017-1.961.018-2.604.006-5.208.01-7.812.009-1.244-.001-2.488-.02-3.732-.03-.121 0-.132-.001-.136-.122-.007-.21.001-.42.002-.629 0-.072.039-.104.107-.105.273-.007.547-.016.82-.02.253-.003.506 0 .772 0Zm6.957-.004v-9.024h-.085c-.377 0-.754.002-1.132-.003-.085-.001-.103.028-.103.108.002.922.002 1.844.002 2.766v6.057c0 .03.002.06.004.096h1.314Zm-3.191-9.02v9.017h1.312v-9.018h-1.312Zm3.797 6.247v2.764h2.311v-2.764h-2.311Zm-4.425.325h-2.386v1.25h2.386v-1.25Zm-2.384-3.496v1.217h2.384v-1.217h-2.384Zm2.386 1.747h-2.387v1.217h2.387v-1.217Z" fill="#107899" fill-rule="evenodd" data-name="Path 2703"/></g></g></svg>