<svg xmlns="http://www.w3.org/2000/svg" width="13.292" height="14" viewBox="844.522 2695.252 13.292 14"><g data-name="Group 753"><g data-name="Group 752"><path d="M851.134 2701.888a1.572 1.572 0 0 1-1.571-1.57c0-.866.705-1.57 1.571-1.57.865 0 1.57.704 1.57 1.57 0 .866-.705 1.57-1.57 1.57Zm0-2.494a.924.924 0 1 0 0 1.845.924.924 0 0 0 0-1.845Z" fill="#107899" fill-rule="evenodd" data-name="Path 2698"/><path d="m844.522 2709.252 1.379-4.409 3.08-.033-.29-.16c-1.39-1.326-2.452-2.5-2.452-4.504 0-2.79 2.104-4.894 4.895-4.894 2.79 0 4.894 2.104 4.894 4.894 0 2.005-1.062 3.178-2.452 4.505l-.256.244 2.999-.085 1.495 4.442h-13.292Zm.803-.581 11.664-.065-.477-1.244-2.909.034-.05-.598 2.826-.049-.504-1.327-2.937.034-.05-.248-.159.258c-.863.855-1.233 1.376-1.478 1.72l-.04.055-.117.053-.065-.091c-.26-.364-.634-.887-1.493-1.739l-.242-.239.085.182-3.034.05-.41 1.357 2.729-.065.05.597-2.97.05-.419 1.275Zm5.809-12.774c-2.462 0-4.248 1.787-4.248 4.249 0 1.893 1.07 2.912 2.424 4.202.587.558 1.19 1.132 1.752 1.825l.11.136.033-.136c.575-.71 1.179-1.282 1.762-1.835 1.298-1.231 2.415-2.29 2.415-4.192 0-2.462-1.787-4.249-4.248-4.249Z" fill="#107899" fill-rule="evenodd" data-name="Path 2699"/></g></g></svg>