<svg xmlns="http://www.w3.org/2000/svg" width="23.328" height="11.67" viewBox="5511.852 389.963 23.328 11.67"><g data-name="Group 510"><path d="M5519.983 401.633c-.3 0-.592-.092-.847-.267-.321-.218-.527-.536-.668-1.032l-.021-.072h-1.829l-.565-.007c-.117 0-.234.002-.35.01h-.012c-.45 0-.687-.187-.819-.345a1.248 1.248 0 0 1-.273-.963l.17-.977-2.505-.001c-.167 0-.289-.036-.354-.102a.226.226 0 0 1-.058-.172c.006-.218.223-.264.404-.265h3.906c.277 0 .423.102.424.272 0 .174-.132.263-.394.267l-.878.001-.069.388c-.04.22-.08.432-.107.645-.03.239.01.415.118.538.108.122.278.181.517.181l2.66.001.141-.41c.254-.682.894-1.157 1.557-1.157.772.031 1.304.507 1.517 1.306.03.112.178.252.303.252.809.007 1.618.009 2.428.009l1.783-.003c.427-.001.496-.399.522-.549.118-.682.231-1.365.343-2.047l.957-5.803c.05-.304.02-.509-.095-.644-.112-.132-.3-.193-.592-.193l-9.998.001c-.51 0-.65.114-.74.613-.025.133-.05.294-.072.451l-.075.473 1.813.001c.005 0 .417.007.417.251 0 .197-.093.281-.31.281l-5.008-.004c-.241-.013-.27-.155-.272-.259-.002-.167.084-.254.265-.267.059-.004.31-.004.31-.004l1.832.007c.304 0 .435-.116.463-.401.03-.285.095-.568.161-.847.124-.525.5-.826 1.03-.827l10.362.001c.52 0 .882.283 1.022.798l.1.387h2.506c.157 0 .314.001.471.005.4.011.72.178.957.498l2.394 3.238c.213.289.292.599.24.953l-.196 1.368c-.095.673-.19 1.344-.293 2.015-.1.651-.546 1.027-1.223 1.033l-.593.004c-.154 0-.308-.001-.462-.008h-.003c-.246 0-.375.083-.483.287-.303.578-.863.936-1.46.936-.19 0-.379-.036-.559-.106-.387-.152-.668-.437-.835-.844-.079-.191-.197-.269-.407-.269l-3.5.004-3.195-.004c-.227 0-.351.083-.444.297-.283.654-.883 1.077-1.53 1.077Zm.12-2.725a.959.959 0 0 0-.682.289 1.075 1.075 0 0 0-.305.761c.007.536.396.939.907.939.546-.002.974-.456.977-1.033.004-.541-.378-.952-.888-.956h-.009Zm10.472-.163c-.539 0-.994.481-.994 1.051 0 .516.41.956.894.96.535 0 .998-.492 1-1.053 0-.518-.41-.956-.896-.958h-.004Zm.08-.719c.804.018 1.3.547 1.512 1.619l.016.08.853.005c.173 0 .346-.002.518-.009a.597.597 0 0 0 .59-.535c.17-1.138.335-2.276.483-3.418a.843.843 0 0 0-.136-.55c-.535-.742-1.08-1.477-1.624-2.212l-.726-.985a.75.75 0 0 0-.637-.33 154.638 154.638 0 0 1-2.703 0c-.244 0-.35.092-.389.329a789.087 789.087 0 0 1-.668 4.037l-.608 3.66h1.751l.019-.075c.272-1.057.862-1.616 1.708-1.616h.04Z" fill="#107899" fill-rule="evenodd" data-name="Path 2009"/><path d="M5514.437 396.612c-.069 0-.165-.014-.226-.075-.043-.044-.064-.107-.063-.191.002-.124.04-.266.323-.266l.495.001-.01-.011c.075.011.223.011.51.011l3.023.001c.293.007.292.201.292.265-.001.175-.099.264-.293.264l-2.394.002-1.657-.001Z" fill="#107899" fill-rule="evenodd" data-name="Path 2010"/><path d="M5514.87 393.871c-.419-.002-.42-.189-.422-.268-.001-.078.019-.135.06-.177.063-.065.182-.097.353-.098l4.272-.001c.164.001.284.034.346.098.042.043.061.102.06.182-.003.121-.05.261-.397.262l-2.712.002h-1.56Z" fill="#107899" fill-rule="evenodd" data-name="Path 2011"/><path d="M5515.505 395.271c-.117-.001-.39-.028-.391-.271-.001-.177.13-.268.387-.271h.87c.39.003.392.195.392.267a.229.229 0 0 1-.066.173c-.064.065-.178.101-.321.102l-.435.001-.436-.001Z" fill="#107899" fill-rule="evenodd" data-name="Path 2012"/><path d="M5520.236 393.862c-.168-.008-.263-.109-.257-.272.007-.16.103-.255.257-.255.185.007.267.105.268.302-.01.097-.064.225-.248.225h-.02Z" fill="#107899" fill-rule="evenodd" data-name="Path 2013"/><path d="M5512.273 392.558c-.173-.001-.26-.088-.26-.26 0-.111.03-.241.273-.269.159.02.248.109.248.269.001.083-.022.149-.066.193a.266.266 0 0 1-.193.067h-.002Z" fill="#107899" fill-rule="evenodd" data-name="Path 2014"/><path d="M5513.43 396.608c-.157 0-.245-.09-.25-.254-.002-.104.023-.248.27-.274.213.018.247.147.25.258.006.215-.135.265-.253.27h-.017Z" fill="#107899" fill-rule="evenodd" data-name="Path 2015"/><path d="M5528.978 394.557c-.096 0-.126-.019-.136-.03-.008-.009-.023-.041-.005-.14.098-.527.19-1.054.267-1.582.019-.132.053-.161.193-.161l1.223.002c.331 0 .662.001.992.007a.364.364 0 0 1 .232.126 62.4 62.4 0 0 1 1.062 1.612c.066.103.074.142.075.153l-.005-.002c-.014 0-.058.011-.167.012l-3.731.003Z" fill="#107899" fill-rule="evenodd" data-name="Path 2016"/></g></svg>