<svg xmlns="http://www.w3.org/2000/svg" width="10.755" height="10.26" viewBox="-2411.695 1040.712 10.755 10.26"><g data-name="Group 143"><path d="M-2406.147 1040.822a.206.206 0 0 0-.17-.11.2.2 0 0 0-.17.11l-1.56 3.16-3.491.51a.183.183 0 0 0-.149.13.19.19 0 0 0 .05.19l2.52 2.46-.6 3.47a.2.2 0 0 0 .08.19c.03.03.07.04.11.04.029 0 .06-.01.09-.02l3.12-1.64.88.46v-7.51l-.71-1.44Z" fill="#e87500" fill-rule="evenodd" data-name="Path 328"/><path d="m-2400.998 1044.812-2.52 2.46.601 3.47c.01.07-.02.15-.081.19-.06.04-.14.05-.199.02l-2.24-1.18v-7.51l.85 1.72 3.49.51c.07.01.13.06.15.13a.19.19 0 0 1-.051.19Z" fill="#d5d5d5" fill-rule="evenodd" data-name="Path 329"/></g></svg>