<svg xmlns="http://www.w3.org/2000/svg" width="10.686" height="10.182" viewBox="-1556.192 2684.776 10.686 10.182"><path d="M-1553.633 2695.358a.186.186 0 0 1-.112-.037.19.19 0 0 1-.076-.187l.591-3.446-2.504-2.44a.19.19 0 0 1-.048-.196.19.19 0 0 1 .154-.131l3.46-.502 1.548-3.136a.192.192 0 0 1 .171-.107h0c.073 0 .14.042.172.107l1.547 3.136 3.46.502a.191.191 0 0 1 .106.327l-2.503 2.44.591 3.446a.191.191 0 0 1-.278.202l-3.095-1.627-3.095 1.627a.185.185 0 0 1-.09.022Z" stroke-linejoin="round" stroke-linecap="round" stroke-width=".8" stroke="#107899" fill="transparent" data-name="Path 2222"/></svg>