<svg xmlns="http://www.w3.org/2000/svg" width="17.98" height="15.93" viewBox="4719.166 409.765 17.98 15.93"><path d="M4734.06 425.695h-11.844a.945.945 0 0 1-.945-.945v-7.569l.297-.047a2.063 2.063 0 0 0 1.014-.457l.577-.485v4.272h9.958v-4.314l.58.504c.29.251.64.416 1.014.479l.292.05v7.567a.948.948 0 0 1-.944.945Zm-12.087-7.93v6.985c0 .134.109.243.243.243h11.844a.241.241 0 0 0 .242-.242v-6.992a2.828 2.828 0 0 1-.483-.187v3.593h-11.362v-3.58a2.736 2.736 0 0 1-.484.18Zm13.838-1.227c-.448.157-.8.184-1.233.08a1.989 1.989 0 0 1-.18-.051l-.03-.011-.02-.007-.136-.057a2.06 2.06 0 0 1-.391-.23h-.069l-.08-.123a2.227 2.227 0 0 1-.266-.288l-.07-.099a2.076 2.076 0 0 1-3.455.001 2.077 2.077 0 0 1-3.456 0 2.077 2.077 0 0 1-3.455-.001 2.116 2.116 0 0 1-.809.707c-.084.042-.15.067-.22.092-1.485.517-2.775-.583-2.775-1.955v-.138l2.404-2.582v-1.168c0-.52.412-.943.918-.943h11.301c.505 0 .916.423.916.943v1.136l2.441 2.619v.124c0 .863-.52 1.665-1.335 1.951Zm-1.101-.61.032.009a1.38 1.38 0 0 0 1.697-1.204l-2.182-2.34h-12.21l-2.173 2.334a1.385 1.385 0 0 0 1.787 1.18l.054-.021a.932.932 0 0 0 .12-.047c.061-.031.101-.051.14-.076.167-.108.31-.247.416-.408l.026-.042c.028-.045.052-.094.076-.142.084-.178.127-.371.127-.572h.702c0 .759.617 1.377 1.376 1.377.759 0 1.376-.618 1.376-1.377h.702a1.378 1.378 0 0 0 2.754 0h.702a1.378 1.378 0 0 0 2.753 0h.702c0 .238.058.463.174.671.04.064.058.094.079.121.048.066.07.092.093.116.065.072.096.1.13.129l.044.038c.095.076.203.141.32.191h.149l.034.063Zm-12.602-4.237h12.084a.265.265 0 0 0-.07-.01h-11.942a.266.266 0 0 0-.072.01Zm.164-.712h11.73v-.271c0-.133-.095-.241-.213-.241h-11.301c-.12 0-.216.108-.216.241v.271Z" fill="#107899" fill-rule="evenodd" data-name="Path 1996"/></svg>