<svg xmlns="http://www.w3.org/2000/svg" width="17.418" height="20.916" viewBox="-2699.465 188.272 17.418 20.916"><g data-name="Group 103"><path d="M-2683.519 188.272c.048.022.096.045.145.064.393.159.641.443.676.868.09 1.079.164 2.158.24 3.237l.354 4.928c.02.285.042.57.054.855.02.394-.085.505-.473.506h-1.255v.226c0 1.954-.015 3.908.01 5.861.008.491.141.983.227 1.468.141.811.293 1.619.437 2.429.054.305-.085.471-.394.472-.885.002-1.77.002-2.655 0-.314 0-.452-.158-.397-.468.209-1.178.426-2.355.637-3.533.022-.113.035-.228.037-.344.002-1.974.002-3.948 0-5.922 0-.055-.005-.109-.008-.189h-.202c-.382 0-.764.003-1.144 0-.257-.004-.394-.141-.382-.398.027-.491.064-.978.1-1.467.102-1.445.205-2.891.31-4.337.08-1.106.156-2.213.244-3.319.033-.407.267-.687.637-.855l.181-.081 2.621-.001Zm-.327 20.21c-.192-1.053-.382-2.086-.569-3.121h-.814l-.568 3.121h1.951Zm-.64-3.838v-5.904h-.671v5.904h.672Z" fill="#107899" fill-rule="evenodd" data-name="Path 138"/><path d="M-2693.9 209.187h-2.45c-.817 0-1.438-.427-1.721-1.193-.514-1.391-.969-2.8-1.236-4.262-.18-.979-.254-1.96.037-2.931.414-1.378 1.354-2.23 2.71-2.64.187-.055.24-.13.237-.319-.012-.709-.006-1.415-.004-2.123 0-.368.105-.472.476-.472h3.941c.353 0 .465.109.465.462v2.205c0 .094-.017.174.121.212 2.098.576 3.155 2.283 2.997 4.479-.109 1.547-.565 3.014-1.049 4.475-.105.316-.216.629-.334.941-.278.731-.9 1.164-1.679 1.166-.837.003-1.674 0-2.51 0Zm-4.849-6.847c.324-.164.624-.315.927-.464.99-.484 1.979-.477 2.957.035.583.306 1.159.628 1.741.936.867.457 1.723.432 2.557-.084.474-.292.938-.6 1.413-.894.104-.065.14-.138.113-.25-.08-.315-.13-.643-.247-.943-.456-1.164-1.63-1.946-2.88-1.946h-3.633a1.468 1.468 0 0 0-.303.029c-1.841.399-2.731 1.863-2.645 3.581Zm1.247 5.113c.115.623.507 1.03 1.042 1.037 1.715.01 3.43.01 5.146 0 .545-.003 1.015-.491 1.033-1.037h-7.221Zm1.886-10.114v.68h3.462v-.68h-.617c-.255-.004-.418-.14-.42-.348-.002-.208.159-.345.415-.348h.621v-.685h-3.458v.685h1.382a.321.321 0 0 1 .328.254.314.314 0 0 1-.159.382.641.641 0 0 1-.273.055c-.421.007-.841.003-1.282.003l.001.002Z" fill="#107899" fill-rule="evenodd" data-name="Path 139"/></g></svg>