<svg xmlns="http://www.w3.org/2000/svg" width="15.77" height="20.997" viewBox="-2921.752 188.232 15.77 20.997"><path d="M-2913.762 209.222c.75-.02 1.57-.26 2.4-.81 1.52-.99 2.35-2.94 1.29-5.37-.06.96-.4 2.17-1.07 2.93.73-4.25-3.2-4.76-3.21-8.74-2.33 1.22-2.44 4.68-1.61 6.83-.34-.19-1.26-1.35-1.34-2.1-2.01 2.56-.18 6.72 2.84 7.2-.16-.01-.32-.03-.49-.06-.74-.12-1.46-.35-2.11-.7-2.94-1.57-4.69-4.99-4.69-8.26 0-2.08.89-3.94 2.04-5.42.15 1.45.48 2.53 1.14 2.89-.5-4.46 2.11-7.59 6.99-9.38-2.99 3.88 2.55 8.09 2.86 12.12.71-1.22 1.12-2.86 1.2-5.04 3.48 5.46.92 14.19-6.24 13.91Z" fill="#107899" fill-rule="evenodd" data-name="Path 140"/></svg>