<svg xmlns="http://www.w3.org/2000/svg" width="17.418" height="20.916" viewBox="-2848.022 188.272 17.418 20.916"><g data-name="Group 100"><path d="M-2832.076 188.272c.048.022.095.045.144.064.394.159.642.443.676.868.089 1.079.164 2.158.241 3.237.119 1.643.236 3.286.353 4.928.02.285.042.57.055.855.021.394-.085.505-.473.506h-1.256v.226c0 1.954-.015 3.908.011 5.861.007.491.14.983.226 1.468.142.811.293 1.619.437 2.429.054.305-.085.471-.394.472-.885.002-1.77.002-2.655 0-.313 0-.452-.158-.397-.468.21-1.178.426-2.355.638-3.533.022-.113.034-.228.036-.344.002-1.974.002-3.948 0-5.922 0-.055-.004-.109-.008-.189h-.202c-.382 0-.764.003-1.143 0-.257-.004-.394-.141-.382-.398.026-.491.063-.978.098-1.467l.312-4.337c.08-1.106.155-2.213.243-3.319.033-.407.267-.687.637-.855l.181-.081 2.622-.001Zm-.328 20.21c-.192-1.053-.382-2.086-.568-3.121h-.815l-.567 3.121h1.95Zm-.639-3.838v-5.904h-.672v5.904h.672Z" fill="#fff" fill-rule="evenodd" data-name="Path 120"/><path d="M-2842.458 209.187h-2.45c-.817 0-1.438-.427-1.72-1.193-.515-1.391-.969-2.8-1.236-4.262-.179-.979-.255-1.96.036-2.931.415-1.378 1.355-2.23 2.711-2.64.187-.055.24-.13.237-.319-.012-.709-.006-1.415-.005-2.123 0-.368.106-.472.476-.472h3.941c.354 0 .465.109.465.462v2.205c0 .094-.016.174.122.212 2.097.576 3.154 2.283 2.996 4.479-.109 1.547-.565 3.014-1.05 4.475-.103.316-.215.629-.333.941-.277.731-.9 1.164-1.679 1.166-.836.003-1.674 0-2.511 0Zm-4.849-6.847c.324-.164.625-.315.928-.464.991-.484 1.978-.477 2.956.035.583.306 1.16.628 1.741.936.867.457 1.723.432 2.557-.084.474-.292.939-.6 1.413-.894.104-.065.141-.138.113-.25-.08-.315-.129-.643-.247-.943-.456-1.164-1.63-1.946-2.88-1.946h-3.632a1.46 1.46 0 0 0-.303.029c-1.842.399-2.731 1.863-2.646 3.581Zm1.247 5.113c.116.623.507 1.03 1.042 1.037 1.716.01 3.431.01 5.146 0 .546-.003 1.015-.491 1.034-1.037h-7.222Zm1.887-10.114v.68h3.462v-.68h-.618c-.255-.004-.418-.14-.42-.348-.002-.208.16-.345.415-.348h.622v-.685h-3.458v.685h1.382a.32.32 0 0 1 .327.254.314.314 0 0 1-.16.382.641.641 0 0 1-.272.055c-.42.007-.84.003-1.282.003l.002.002Z" fill="#fff" fill-rule="evenodd" data-name="Path 121"/></g></svg>