<svg xmlns="http://www.w3.org/2000/svg" width="18.16" height="18.694" viewBox="-2773.976 189.631 18.16 18.694"><g data-name="Group 101"><path d="M-2767.408 200.822a3.977 3.977 0 0 1 4.194 0c.502-.752.277-1.595.36-2.431.271.257.521.489.766.733.031.045.045.1.038.155a3.286 3.286 0 0 1-2.92 3.595h-.193a3.305 3.305 0 0 1-3.422-3.184v-3.248h-.065l-.18.315a4.19 4.19 0 0 0-.572 2.013v8.833a3.66 3.66 0 0 1 0 .366.406.406 0 0 1-.798.039 1.797 1.797 0 0 1 0-.373v-8.749a4.864 4.864 0 0 1 1.37-3.467.83.83 0 0 0 .258-.644 5.377 5.377 0 0 1 .057-.907c.105-.522.473-.952.972-1.138a5.126 5.126 0 0 1 1.846-.225l.135.765-.823.09a3.181 3.181 0 0 0-.644.09.786.786 0 0 0-.643.682 1.797 1.797 0 0 0 0 .373v4.896c-.053.489.039.983.264 1.421Zm3.95.335c-.849-.811-3.037-.733-3.686 0a2.38 2.38 0 0 0 3.686 0Z" fill="#107899" fill-rule="evenodd" data-name="Path 122"/><path d="M-2762.641 197.207a2.68 2.68 0 0 1-.644-.058 2.007 2.007 0 0 1-1.686-2.283l.001-.007c.04-.256.128-.502.257-.727a.693.693 0 0 0 .058-.643 2.573 2.573 0 0 1 1.486-3.3h.032a2.673 2.673 0 0 1 1.055-.167.987.987 0 0 0 .586-.116 2.11 2.11 0 0 1 2.573.386.64.64 0 0 0 .534.231 2.573 2.573 0 0 1 2.354 3.609.692.692 0 0 0-.038.508 1.931 1.931 0 0 1-1.137 2.482l-.041.014c-.147.054-.3.088-.456.103a.561.561 0 0 0-.457.283 2.463 2.463 0 0 1-3.376.863l-.001-.001a2.567 2.567 0 0 1-.92-.971l-.18-.206Z" fill="#107899" fill-rule="evenodd" data-name="Path 123"/><path d="m-2761.11 199.568.784.103v7.97c.013.096.013.194 0 .29a.411.411 0 0 1-.493.309l-.002-.001a.417.417 0 0 1-.315-.36.613.613 0 0 1 0-.161v-7.835c.022-.103.031-.209.026-.315Z" fill="#107899" fill-rule="evenodd" data-name="Path 124"/><path d="M-2770.444 189.784c.103.096.16.128.186.186.04.097.068.199.084.302.13.529.549.939 1.08 1.055.148.046.374 0 .393.226.02.225-.232.205-.373.238-.556.12-.99.556-1.107 1.113a.229.229 0 0 1-.038.16 2.179 2.179 0 0 1-.206.213 2.772 2.772 0 0 1-.167-.206 1.028 1.028 0 0 1-.058-.225 1.353 1.353 0 0 0-1.049-1.03l-.154-.051c-.122 0-.283-.052-.251-.206.032-.154.167-.174.27-.199a1.508 1.508 0 0 0 1.229-1.235c.044-.118.098-.232.16-.341Z" fill="#107899" fill-rule="evenodd" data-name="Path 125"/><path d="M-2759.18 200.7c.296-.116.577-.27.836-.457.18-.249.332-.519.45-.804.052.045.142.084.154.135.071.516.476.921.991.991.072.028.141.062.206.103a4.023 4.023 0 0 0-.888.489 3.48 3.48 0 0 0-.463.849 3.559 3.559 0 0 0-.463-.836 3.362 3.362 0 0 0-.823-.47Z" fill="#107899" fill-rule="evenodd" data-name="Path 126"/><path d="M-2772.96 204.746a2.77 2.77 0 0 0-.373-.643 2.69 2.69 0 0 0-.643-.379 2.73 2.73 0 0 0 .643-.361c.152-.198.28-.414.38-.643.102.229.232.445.386.643.197.153.413.278.643.373-.23.093-.446.217-.643.367a2.75 2.75 0 0 0-.393.643Z" fill="#107899" fill-rule="evenodd" data-name="Path 127"/><path d="M-2766.61 194.949v.643a.258.258 0 0 1-.23.283l-.002.001h-.058a.27.27 0 0 1-.289-.25V194.338c0-.16.129-.289.29-.289a.289.289 0 0 1 .263.308 3.7 3.7 0 0 1 .026.592Z" fill="#107899" fill-rule="evenodd" data-name="Path 128"/><path d="M-2766.61 197.001v.251a.251.251 0 0 1-.238.238.264.264 0 0 1-.316-.199 2.207 2.207 0 0 1 0-.573.264.264 0 0 1 .27-.231c.143 0 .258.115.258.257a.72.72 0 0 1 .026.257Z" fill="#107899" fill-rule="evenodd" data-name="Path 129"/></g></svg>